<?xml version="1.0" encoding="utf-8"?>
<!-- Generator: Adobe Illustrator 16.0.0, SVG Export Plug-In . SVG Version: 6.00 Build 0)  -->
<!DOCTYPE svg PUBLIC "-//W3C//DTD SVG 1.1//EN" "http://www.w3.org/Graphics/SVG/1.1/DTD/svg11.dtd">
<svg version="1.1" id="Layer_1" xmlns="http://www.w3.org/2000/svg" xmlns:xlink="http://www.w3.org/1999/xlink" x="0px" y="0px"
	 width="448.666px" height="129.333px" viewBox="0 -11.249 448.666 129.333" enable-background="new 0 -11.249 448.666 129.333"
	 xml:space="preserve">
<g>
	<path fill="#C9C9C9" d="M68.814-5.298c0.606,0,1.211,0,1.817,0c0.843,0.051,1.669,0.163,2.438,0.297
		c5.39,0.963,9.258,3.36,12.679,6.35c3.887,3.404,6.918,7.607,9.477,12.264c0.025,0.046,0.084,0.203,0.139,0.252
		c0.094,0.083,0.077,0.052,0.184,0.068c0.721,0.109,1.445,0.111,2.138,0.185c2.156,0.228,4.116,0.509,6.029,0.944
		c7.567,1.715,13.673,4.937,17.693,10.261c2.695,3.57,4.492,8.137,4.209,14.378c-0.129,2.871-0.764,5.459-1.542,7.775
		c-0.79,2.355-1.738,4.448-2.828,6.49c-0.032,0.059-0.077,0.129-0.094,0.18c-0.056,0.177,0.116,0.354,0.231,0.577
		c1.993,3.837,3.767,8.17,4.188,13.435c0.515,6.475-1.393,11.159-3.98,14.702c-4.619,6.322-12.223,9.852-21.672,11.227
		c-1.36,0.197-2.784,0.256-4.28,0.434c-0.153,0.022-0.164-0.001-0.254,0.073c-0.054,0.046-0.063,0.116-0.114,0.206
		c-2.624,4.779-5.77,9.023-9.775,12.539c-1.948,1.709-4.192,3.231-6.767,4.393c-2.583,1.172-5.632,2.026-9.131,2.026
		c-1.834,0-3.406-0.271-4.924-0.646c-4.441-1.099-7.943-3.335-10.837-5.911c-3.78-3.368-6.651-7.2-9.247-11.69
		c-0.135-0.229-0.343-0.733-0.508-0.896c-0.116-0.112-0.188-0.076-0.391-0.093c-5.711-0.337-10.888-1.544-15.183-3.449
		c-4.342-1.926-7.896-4.544-10.561-8.076c-1.336-1.771-2.436-3.76-3.153-6.168c-0.703-2.359-1.172-5.183-0.943-8.281
		c0.409-5.519,2.015-9.604,4.026-13.454c0.131-0.258,0.472-0.765,0.415-0.947c-0.079-0.245-0.284-0.488-0.415-0.733
		c-0.413-0.781-0.775-1.602-1.127-2.393c-1.455-3.281-2.58-6.722-2.899-11.136c-0.226-3.106,0.23-5.954,0.943-8.305
		c0.733-2.417,1.865-4.37,3.198-6.166c2.645-3.563,6.254-6.167,10.628-8.078c4.071-1.774,8.831-2.889,14.197-3.335
		c0.364-0.03,0.791,0.018,1.103-0.069c0.172-0.047,0.167-0.116,0.254-0.276c2.546-4.636,5.658-8.91,9.502-12.283
		C57.634-2.104,62.004-4.708,68.814-5.298z M93.776,13.453C91.31,8.797,88.36,4.562,84.665,1.167
		c-1.88-1.728-4.017-3.329-6.533-4.51c-2.472-1.162-5.517-2.081-9.134-1.91c-0.859,0.041-1.711,0.131-2.483,0.251
		c-0.756,0.123-1.459,0.303-2.163,0.51c-4.076,1.199-7.212,3.414-9.961,6.025c-3.528,3.35-6.352,7.449-8.72,11.917
		c-0.066,0.127-0.167,0.261-0.16,0.415c9.249-0.302,17.108,1.187,24.224,3.175c7.101-1.998,14.963-3.472,24.204-3.175
		C93.941,13.711,93.843,13.578,93.776,13.453z M39.088,31.765c0.114,0.011,0.231-0.125,0.347-0.207
		c7.878-5.678,16.936-10.179,27.054-13.575c-6.501-1.666-13.414-2.917-21.649-2.851C42.374,20.123,40.51,25.724,39.088,31.765z
		 M72.956,18.006c5.185,1.636,10.001,3.76,14.587,6.027c3.44,1.704,6.667,3.687,9.777,5.683c0.978,0.63,1.929,1.349,2.851,1.978
		c0.042,0.03,0.122,0.09,0.184,0.071c-1.432-6.04-3.266-11.671-5.773-16.636C86.364,15.078,79.413,16.297,72.956,18.006z
		 M36.353,33.881c0.211-0.165,0.575-0.413,0.644-0.552c0.074-0.149,0.086-0.405,0.138-0.623c1.346-5.671,3.04-10.781,5.269-15.506
		c0.269-0.567,0.622-1.236,0.873-1.814c0.134-0.306,0.026-0.189-0.183-0.187c-2.788,0.058-5.525,0.436-8.052,0.945
		c-7.492,1.506-13.517,4.583-17.323,9.708c-2.503,3.371-4.22,8.108-3.566,14.125c0.577,5.321,2.588,9.451,4.739,13.273
		C23.4,45.479,29.465,39.274,36.353,33.881z M96.099,15.245c2.671,5.209,4.711,11.035,6.211,17.439
		c0.052,0.226,0.062,0.492,0.138,0.645c0.075,0.151,0.423,0.358,0.644,0.53c6.918,5.386,12.974,11.725,17.486,19.391
		c2.13-3.83,4.129-8.008,4.739-13.32c0.332-2.901,0.057-5.801-0.645-8.122c-2.094-6.93-7.026-11.046-13.459-13.665
		c-4.315-1.758-9.419-2.725-15.115-2.969C96.064,15.181,96.084,15.226,96.099,15.245z M68.424,16.764
		c-0.578,0.932-1.122,2.099-1.703,3.104c-10.632,3.594-19.92,8.532-28.184,14.494c-0.27,1.488-0.534,2.953-0.758,4.487
		c-0.218,1.506-0.402,3.044-0.577,4.623c-0.86,7.803-0.627,17.064,0.346,24.477c0.2,1.525,0.485,3.013,0.69,4.509
		c0.021,0.146-0.253,0.517-0.344,0.671c-0.383,0.641-0.75,1.194-1.105,1.794c-7.076-5.47-13.286-11.809-17.921-19.718
		c-2.139,3.835-4.13,8.015-4.74,13.344c-0.688,6.023,1.179,10.854,3.658,14.146c5.16,6.856,14.205,10.01,25.583,10.585
		c-2.369-4.707-4.361-9.914-5.729-15.552c0.561,0.016,1.179-0.031,1.702,0.023c1.4,5.633,3.158,10.905,5.521,15.575
		c8.218,0.052,15.167-1.165,21.625-2.874c-9.656-3.166-18.308-7.479-25.813-12.725c0.74,0,1.616,0,2.369,0
		c0.25,0,0.732-0.061,0.854,0c0.494,0.258,0.966,0.604,1.448,0.898c7.34,4.439,15.319,8.164,24.34,10.925c0.021,0,0.045,0,0.069,0
		c9.276-2.897,17.536-6.653,25.03-11.339c0.327-0.206,0.565-0.439,0.897-0.461c1.023-0.061,2.247-0.048,3.243-0.117
		c-7.621,5.317-16.265,9.607-25.974,12.838c6.506,1.67,13.428,2.921,21.671,2.854c2.31-4.775,4.129-10.043,5.521-15.737
		c0.572-0.004,1.21-0.064,1.726-0.043c-1.362,5.558-3.315,10.696-5.59,15.296c-0.064,0.13-0.186,0.275-0.16,0.438
		c5.684-0.25,10.783-1.213,15.091-2.968c4.275-1.739,7.946-4.191,10.469-7.617c2.465-3.346,4.326-8.154,3.636-14.169
		c-0.611-5.313-2.601-9.518-4.763-13.323c-4.593,7.911-10.799,14.217-17.853,19.671c-0.49-0.808-1.025-1.568-1.519-2.369
		c1.112-5.773,1.611-12.346,1.611-19.189c0-6.821-0.809-13.192-1.885-18.909c-9-6.586-19.37-11.92-31.289-15.505
		C69.225,18.185,68.82,17.478,68.424,16.764z M36.444,35.998c-0.002-0.014-0.005-0.027-0.023-0.022
		C29.846,41.136,23.946,46.98,19.466,54.24c3.355,5.438,7.582,10.085,12.171,14.264c1.433,1.308,2.99,2.592,4.51,3.771
		c0.078,0.063,0.18,0.175,0.299,0.161C34.23,61.643,34.243,46.768,36.444,35.998z M103.023,35.998
		c-0.002-0.025-0.028-0.021-0.023,0.021c1.043,5.438,1.682,11.771,1.679,18.223c0,6.444-0.642,12.777-1.679,18.217
		c6.58-5.066,12.497-10.999,16.979-18.24C115.475,46.999,109.628,41.121,103.023,35.998z M71.092,91.811
		c-0.453-0.125-0.912-0.296-1.359-0.372c-0.152-0.023-0.509,0.123-0.737,0.188c-6.99,1.914-14.518,3.233-23.488,2.967
		c-0.005,0.152,0.094,0.284,0.162,0.414c1.178,2.225,2.454,4.34,3.865,6.304c3.016,4.204,6.6,7.887,11.411,10.305
		c2.425,1.221,5.257,2.098,8.765,2.094c3.515,0,6.315-0.877,8.766-2.094c2.43-1.196,4.542-2.746,6.374-4.484
		c3.6-3.416,6.491-7.551,8.926-12.104c0.08-0.146,0.176-0.327,0.162-0.435C85.255,94.822,77.836,93.656,71.092,91.811z"/>
	<path fill="#CC0917" d="M75.639,30.781c-4.793,0-9.587,0-14.382,0c-0.028-0.152,0.093-0.268,0.158-0.39
		c1.069-2.02,2.188-4.082,3.275-6.137c1.179-2.225,2.391-4.451,3.563-6.633C70.728,21.981,73.243,26.433,75.639,30.781z"/>
	<path fill="#1C75BC" d="M72.985,57.748c-2.76,0.048-5.512,0.106-8.296,0.129c0.025-8.354,0.083-16.681,0.131-25.013
		c1.974-0.033,3.791-0.105,5.771-0.105c0.639,0,1.382-0.006,2.004-0.054c0.176-0.015,0.115,0.034,0.128,0.313
		c0.099,1.994,0.006,3.936,0.079,5.878c0.084,2.178,0.052,4.243,0.052,6.292C72.855,49.415,73.003,53.582,72.985,57.748z"/>
	<linearGradient id="SVGID_1_" gradientUnits="userSpaceOnUse" x1="90.228" y1="132.1748" x2="90.228" y2="46.1697">
		<stop  offset="0" style="stop-color:#1C5FBC"/>
		<stop  offset="1" style="stop-color:#1C75BC"/>
	</linearGradient>
	<path fill="url(#SVGID_1_)" d="M76.523,36.113c10.138,15.625,20.374,31.285,30.426,46.916c-3.361,0.11-6.799,0.299-10.271,0.384
		C96.436,83.42,96.139,83.48,96,83.439c-0.192-0.056-0.471-0.659-0.649-0.931c-3.095-4.772-6.288-9.715-9.336-14.432
		c-4.188-0.026-8.345-0.085-12.508-0.134c0-2.29,0-4.58,0-6.866c2.66-0.025,5.3-0.074,7.983-0.078
		c-1.388-2.655-3.023-5.464-4.552-8.218c-0.1-0.182-0.248-0.406-0.286-0.549c-0.136-0.52-0.026-1.315-0.026-1.999
		c0-2.069-0.053-3.944-0.053-6.033c0-2.722-0.15-5.347-0.077-8.01C76.497,36.155,76.49,36.115,76.523,36.113z"/>
	<linearGradient id="SVGID_2_" gradientUnits="userSpaceOnUse" x1="52.7476" y1="132.1738" x2="52.7476" y2="46.1714">
		<stop  offset="0" style="stop-color:#1C5FBC"/>
		<stop  offset="1" style="stop-color:#1C75BC"/>
	</linearGradient>
	<path fill="url(#SVGID_2_)" d="M60.815,36.296c0.137,4.48,0.046,9.187,0.156,13.781c0.015,0.669,0.104,1.444,0,1.976
		c-0.04,0.201-0.271,0.467-0.416,0.729c-4.133,7.536-8.385,14.941-12.535,22.441c4.896-0.139,9.818-0.256,14.746-0.362
		c0.077-1.702,0.081-3.475,0.155-5.18c3.32-0.034,6.613-0.095,9.934-0.129c0.054,4.536,0.111,9.063,0.13,13.628
		c-13.51,0.026-26.984,0.074-40.465,0.129c-0.044-0.131,0.073-0.265,0.132-0.364C39.623,71.36,46.75,59.759,53.692,48.1
		c1.168-1.965,2.34-3.927,3.534-5.877C58.433,40.252,59.642,38.288,60.815,36.296z"/>
</g>
<g>
	<path fill="#494949" d="M137.555,93.175V69.709h3.105v23.466H137.555z"/>
	<path fill="#494949" d="M149.045,93.175V76.176h2.594v2.417c1.248-1.868,3.051-2.802,5.41-2.802c1.025,0,1.967,0.185,2.826,0.553
		c0.858,0.368,1.502,0.852,1.929,1.448c0.427,0.599,0.726,1.308,0.896,2.129c0.106,0.534,0.16,1.468,0.16,2.802v10.452h-2.881
		V82.834c0-1.174-0.112-2.051-0.336-2.633c-0.225-0.582-0.622-1.046-1.193-1.393c-0.571-0.347-1.241-0.52-2.009-0.52
		c-1.228,0-2.287,0.39-3.178,1.168c-0.891,0.779-1.336,2.257-1.336,4.434v9.284H149.045z"/>
	<path fill="#494949" d="M171.244,93.175V78.417h-2.545v-2.241h2.545v-1.809c0-1.143,0.101-1.991,0.304-2.546
		c0.278-0.747,0.766-1.353,1.465-1.816c0.699-0.465,1.678-0.696,2.938-0.696c0.811,0,1.707,0.097,2.689,0.288l-0.432,2.513
		c-0.598-0.106-1.163-0.16-1.696-0.16c-0.875,0-1.495,0.188-1.857,0.561c-0.363,0.374-0.544,1.072-0.544,2.098v1.568h3.313v2.241
		h-3.313v14.758H171.244z"/>
	<path fill="#494949" d="M182.877,93.175V69.709h2.881v23.466H182.877z"/>
	<path fill="#494949" d="M204.645,93.175v-2.497c-1.324,1.921-3.122,2.881-5.395,2.881c-1.003,0-1.939-0.191-2.809-0.575
		c-0.87-0.385-1.515-0.867-1.937-1.449c-0.421-0.582-0.718-1.294-0.889-2.137c-0.117-0.565-0.176-1.462-0.176-2.689V76.176h2.881
		v9.428c0,1.506,0.059,2.52,0.176,3.041c0.181,0.759,0.565,1.353,1.152,1.786c0.587,0.432,1.313,0.647,2.177,0.647
		c0.865,0,1.676-0.221,2.434-0.664c0.757-0.442,1.294-1.046,1.608-1.81c0.315-0.762,0.472-1.869,0.472-3.321v-9.107h2.881v16.999
		H204.645z"/>
	<path fill="#494949" d="M226.651,87.701l2.977,0.368c-0.47,1.739-1.34,3.089-2.609,4.049c-1.27,0.961-2.892,1.44-4.866,1.44
		c-2.486,0-4.458-0.766-5.915-2.296c-1.457-1.531-2.185-3.68-2.185-6.443c0-2.859,0.736-5.08,2.209-6.659
		c1.472-1.579,3.382-2.369,5.73-2.369c2.273,0,4.13,0.773,5.571,2.321c1.439,1.547,2.16,3.725,2.16,6.531
		c0,0.171-0.005,0.427-0.016,0.769H217.03c0.106,1.867,0.635,3.298,1.584,4.29s2.134,1.488,3.554,1.488
		c1.056,0,1.958-0.278,2.705-0.833C225.62,89.804,226.213,88.917,226.651,87.701z M217.19,83.043h9.492
		c-0.128-1.431-0.491-2.503-1.088-3.218c-0.919-1.109-2.108-1.665-3.57-1.665c-1.324,0-2.436,0.443-3.337,1.329
		S217.287,81.56,217.19,83.043z"/>
	<path fill="#494949" d="M236.523,93.175V76.176h2.594v2.417c1.248-1.868,3.052-2.802,5.41-2.802c1.024,0,1.967,0.185,2.825,0.553
		c0.859,0.368,1.503,0.852,1.93,1.448c0.427,0.599,0.726,1.308,0.896,2.129c0.106,0.534,0.16,1.468,0.16,2.802v10.452h-2.881V82.834
		c0-1.174-0.113-2.051-0.337-2.633s-0.622-1.046-1.192-1.393c-0.571-0.347-1.241-0.52-2.009-0.52c-1.228,0-2.286,0.39-3.178,1.168
		c-0.892,0.779-1.337,2.257-1.337,4.434v9.284H236.523z"/>
	<path fill="#494949" d="M269.127,86.949l2.833,0.367c-0.31,1.953-1.102,3.481-2.376,4.586c-1.276,1.104-2.843,1.656-4.698,1.656
		c-2.326,0-4.197-0.76-5.611-2.28c-1.413-1.521-2.12-3.7-2.12-6.539c0-1.835,0.304-3.441,0.912-4.818s1.534-2.409,2.777-3.098
		c1.243-0.688,2.596-1.032,4.058-1.032c1.847,0,3.355,0.467,4.529,1.4c1.174,0.935,1.928,2.26,2.258,3.979l-2.801,0.432
		c-0.268-1.142-0.74-2-1.417-2.577c-0.678-0.575-1.496-0.864-2.457-0.864c-1.452,0-2.631,0.521-3.538,1.561
		c-0.907,1.041-1.36,2.687-1.36,4.938c0,2.283,0.438,3.943,1.313,4.978c0.874,1.036,2.017,1.554,3.425,1.554
		c1.131,0,2.075-0.347,2.833-1.04C268.445,89.457,268.924,88.39,269.127,86.949z"/>
	<path fill="#494949" d="M289.34,87.701l2.978,0.368c-0.47,1.739-1.339,3.089-2.609,4.049c-1.27,0.961-2.891,1.44-4.865,1.44
		c-2.487,0-4.458-0.766-5.915-2.296c-1.456-1.531-2.185-3.68-2.185-6.443c0-2.859,0.736-5.08,2.209-6.659s3.383-2.369,5.73-2.369
		c2.272,0,4.13,0.773,5.57,2.321c1.441,1.547,2.161,3.725,2.161,6.531c0,0.171-0.006,0.427-0.017,0.769h-12.677
		c0.106,1.867,0.634,3.298,1.584,4.29s2.135,1.488,3.554,1.488c1.057,0,1.959-0.278,2.706-0.833
		C288.311,89.804,288.903,88.917,289.34,87.701z M279.881,83.043h9.492c-0.128-1.431-0.491-2.503-1.089-3.218
		c-0.918-1.109-2.107-1.665-3.569-1.665c-1.324,0-2.437,0.443-3.338,1.329C280.475,80.375,279.977,81.56,279.881,83.043z"/>
	<path fill="#494949" d="M299.183,93.175V76.176h2.593v2.577c0.662-1.206,1.272-2.001,1.832-2.385
		c0.561-0.385,1.178-0.577,1.85-0.577c0.971,0,1.958,0.311,2.961,0.929l-0.992,2.673c-0.704-0.415-1.409-0.624-2.112-0.624
		c-0.63,0-1.195,0.19-1.697,0.568c-0.502,0.379-0.859,0.904-1.072,1.576c-0.32,1.025-0.48,2.146-0.48,3.361v8.9H299.183z"/>
	<path fill="#494949" d="M326.164,93.175V69.709h8.084c1.824,0,3.218,0.111,4.178,0.336c1.344,0.31,2.491,0.869,3.441,1.681
		c1.237,1.046,2.163,2.383,2.776,4.01c0.614,1.628,0.921,3.487,0.921,5.578c0,1.782-0.207,3.361-0.624,4.738
		s-0.95,2.517-1.601,3.418c-0.651,0.902-1.364,1.611-2.138,2.128c-0.773,0.519-1.707,0.91-2.801,1.178
		c-1.094,0.267-2.351,0.399-3.77,0.399H326.164z M329.27,90.405h5.01c1.548,0,2.762-0.144,3.642-0.432
		c0.881-0.288,1.582-0.693,2.105-1.217c0.736-0.735,1.31-1.726,1.721-2.97c0.41-1.242,0.616-2.75,0.616-4.521
		c0-2.455-0.402-4.341-1.209-5.658c-0.806-1.318-1.784-2.201-2.937-2.649c-0.832-0.32-2.173-0.48-4.019-0.48h-4.93V90.405z"/>
	<path fill="#494949" d="M352.717,93.175V76.176h2.593v2.577c0.662-1.206,1.272-2.001,1.833-2.385
		c0.561-0.385,1.177-0.577,1.849-0.577c0.971,0,1.958,0.311,2.962,0.929l-0.992,2.673c-0.704-0.415-1.409-0.624-2.113-0.624
		c-0.63,0-1.195,0.19-1.697,0.568c-0.501,0.379-0.858,0.904-1.072,1.576c-0.319,1.025-0.479,2.146-0.479,3.361v8.9H352.717z"/>
	<path fill="#494949" d="M366.96,73.021v-3.313h2.882v3.313H366.96z M366.96,93.175V76.176h2.882v16.999H366.96z"/>
	<path fill="#494949" d="M382.228,93.175l-6.467-16.999h3.041l3.65,10.18c0.394,1.101,0.757,2.241,1.088,3.427
		c0.256-0.897,0.613-1.975,1.073-3.234l3.776-10.372h2.962l-6.435,16.999H382.228z"/>
	<path fill="#494949" d="M408.811,87.701l2.979,0.368c-0.471,1.739-1.34,3.089-2.609,4.049c-1.271,0.961-2.892,1.44-4.866,1.44
		c-2.487,0-4.458-0.766-5.915-2.296c-1.456-1.531-2.185-3.68-2.185-6.443c0-2.859,0.736-5.08,2.209-6.659s3.383-2.369,5.73-2.369
		c2.273,0,4.13,0.773,5.57,2.321c1.441,1.547,2.161,3.725,2.161,6.531c0,0.171-0.006,0.427-0.017,0.769h-12.677
		c0.106,1.867,0.634,3.298,1.584,4.29s2.135,1.488,3.554,1.488c1.057,0,1.959-0.278,2.706-0.833
		C407.782,89.804,408.374,88.917,408.811,87.701z M399.352,83.043h9.492c-0.128-1.431-0.491-2.503-1.089-3.218
		c-0.918-1.109-2.107-1.665-3.569-1.665c-1.324,0-2.437,0.443-3.338,1.329C399.945,80.375,399.447,81.56,399.352,83.043z"/>
	<path fill="#494949" d="M418.685,93.175V76.176h2.593v2.417c1.249-1.868,3.053-2.802,5.411-2.802c1.025,0,1.966,0.185,2.826,0.553
		c0.858,0.368,1.501,0.852,1.928,1.448c0.427,0.599,0.727,1.308,0.896,2.129c0.106,0.534,0.16,1.468,0.16,2.802v10.452h-2.881
		V82.834c0-1.174-0.112-2.051-0.337-2.633c-0.224-0.582-0.622-1.046-1.192-1.393s-1.24-0.52-2.009-0.52
		c-1.228,0-2.286,0.39-3.177,1.168c-0.892,0.779-1.337,2.257-1.337,4.434v9.284H418.685z"/>
</g>
<g>
	<linearGradient id="SVGID_3_" gradientUnits="userSpaceOnUse" x1="153.1265" y1="134.2637" x2="153.1265" y2="-4.4477">
		<stop  offset="0" style="stop-color:#1C5FBC"/>
		<stop  offset="1" style="stop-color:#1C75BC"/>
	</linearGradient>
	<path fill="url(#SVGID_3_)" d="M146.017,40.087c0.229,4.797,3.198,6.339,7.709,6.339c3.198,0,6.51-1.143,6.51-4.169
		c0-3.598-5.825-4.283-11.707-5.939c-5.825-1.656-11.935-4.283-11.935-11.764c0-8.909,8.966-12.393,16.618-12.393
		c8.109,0,16.276,3.941,16.333,13.135h-10.622c0.171-3.712-3.313-4.912-6.568-4.912c-2.284,0-5.14,0.8-5.14,3.484
		c0,3.141,5.882,3.712,11.822,5.368c5.882,1.656,11.821,4.397,11.821,11.764c0,10.337-8.794,13.649-17.76,13.649
		c-9.366,0-17.646-4.112-17.704-14.563H146.017z"/>
	<linearGradient id="SVGID_4_" gradientUnits="userSpaceOnUse" x1="185.2827" y1="134.2617" x2="185.2827" y2="-4.4475">
		<stop  offset="0" style="stop-color:#1C5FBC"/>
		<stop  offset="1" style="stop-color:#1C75BC"/>
	</linearGradient>
	<path fill="url(#SVGID_4_)" d="M195.591,30.436h-5.997v13.478c0,2.341,1.37,2.855,3.483,2.855c0.799,0,1.656-0.114,2.513-0.114
		v7.138c-1.771,0.058-3.541,0.285-5.311,0.285c-8.281,0-10.394-2.398-10.394-10.451V30.436h-4.911v-6.282h4.911v-8.966h9.708v8.966
		h5.997V30.436z"/>
	<linearGradient id="SVGID_5_" gradientUnits="userSpaceOnUse" x1="212.9243" y1="134.2637" x2="212.9243" y2="-4.4478">
		<stop  offset="0" style="stop-color:#1C5FBC"/>
		<stop  offset="1" style="stop-color:#1C75BC"/>
	</linearGradient>
	<path fill="url(#SVGID_5_)" d="M202.56,24.154h9.423v5.196h0.114c1.428-3.769,4.74-5.768,8.909-5.768
		c0.742,0,1.542,0.057,2.284,0.229v8.852c-1.256-0.343-2.398-0.571-3.712-0.571c-4.797,0-7.31,3.313-7.31,7.025v14.676h-9.708
		V24.154z"/>
	<linearGradient id="SVGID_6_" gradientUnits="userSpaceOnUse" x1="242.3369" y1="134.2637" x2="242.3369" y2="-4.4479">
		<stop  offset="0" style="stop-color:#1C5FBC"/>
		<stop  offset="1" style="stop-color:#1C75BC"/>
	</linearGradient>
	<path fill="url(#SVGID_6_)" d="M228.433,33.292c0.171-3.883,1.998-6.396,4.625-7.938c2.627-1.484,6.054-2.056,9.423-2.056
		c7.024,0,13.819,1.542,13.819,9.937v12.963c0,2.513,0,5.254,1.143,7.596h-9.766c-0.343-0.913-0.457-1.827-0.57-2.798
		c-2.514,2.626-6.225,3.655-9.766,3.655c-5.654,0-10.108-2.855-10.108-8.966c0-9.651,10.508-8.909,17.246-10.28
		c1.656-0.342,2.57-0.914,2.57-2.741c0-2.227-2.684-3.083-4.683-3.083c-2.685,0-4.397,1.199-4.854,3.712H228.433z M240.995,48.653
		c4.626,0,6.168-2.626,5.939-8.737c-1.371,0.856-3.883,1.028-5.997,1.599c-2.169,0.514-3.997,1.428-3.997,3.769
		C236.94,47.683,238.825,48.653,240.995,48.653z"/>
	<linearGradient id="SVGID_7_" gradientUnits="userSpaceOnUse" x1="272.5508" y1="134.2617" x2="272.5508" y2="-4.4475">
		<stop  offset="0" style="stop-color:#1C5FBC"/>
		<stop  offset="1" style="stop-color:#1C75BC"/>
	</linearGradient>
	<path fill="url(#SVGID_7_)" d="M282.858,30.436h-5.996v13.478c0,2.341,1.37,2.855,3.483,2.855c0.8,0,1.656-0.114,2.513-0.114v7.138
		c-1.77,0.058-3.54,0.285-5.311,0.285c-8.281,0-10.394-2.398-10.394-10.451V30.436h-4.911v-6.282h4.911v-8.966h9.708v8.966h5.996
		V30.436z"/>
	<linearGradient id="SVGID_8_" gradientUnits="userSpaceOnUse" x1="303.8047" y1="134.2637" x2="303.8047" y2="-4.4479">
		<stop  offset="0" style="stop-color:#1C5FBC"/>
		<stop  offset="1" style="stop-color:#1C75BC"/>
	</linearGradient>
	<path fill="url(#SVGID_8_)" d="M297.767,41.344c0.171,4.054,2.512,6.738,6.624,6.738c2.342,0,4.626-1.084,5.539-3.255h9.081
		c-1.771,6.853-8.11,9.823-14.735,9.823c-9.651,0-16.218-5.825-16.218-15.762c0-9.08,7.252-15.59,15.99-15.59
		c10.622,0,15.934,7.995,15.477,18.046H297.767z M309.815,35.918c-0.171-3.312-2.513-6.053-5.768-6.053
		c-3.427,0-5.711,2.456-6.281,6.053H309.815z"/>
	<linearGradient id="SVGID_9_" gradientUnits="userSpaceOnUse" x1="340.1436" y1="134.2627" x2="340.1436" y2="-4.4473">
		<stop  offset="0" style="stop-color:#1C5FBC"/>
		<stop  offset="1" style="stop-color:#1C75BC"/>
	</linearGradient>
	<path fill="url(#SVGID_9_)" d="M355.335,50.196c0,4.853-0.915,13.991-14.791,13.991c-6.911,0-13.42-1.541-14.563-9.48h9.708
		c0.229,1.314,0.743,2.114,1.656,2.57c0.856,0.457,2.056,0.628,3.541,0.628c4.625,0,5.082-3.254,5.082-6.909v-2.798h-0.114
		c-1.77,2.741-4.74,4.34-7.881,4.34c-8.966,0-13.021-6.396-13.021-14.734c0-7.881,4.626-14.505,13.021-14.505
		c3.541,0,6.225,1.542,7.938,4.569h0.114v-3.712h9.309V50.196z M340.314,30.722c-4.282,0-5.653,3.769-5.653,7.424
		c0,3.483,1.6,6.967,5.598,6.967c4.111,0,5.881-3.198,5.881-6.91C346.14,34.434,344.655,30.722,340.314,30.722z"/>
	<linearGradient id="SVGID_10_" gradientUnits="userSpaceOnUse" x1="375.9541" y1="134.2607" x2="375.9541" y2="-4.4472">
		<stop  offset="0" style="stop-color:#1C5FBC"/>
		<stop  offset="1" style="stop-color:#1C75BC"/>
	</linearGradient>
	<path fill="url(#SVGID_10_)" d="M380.009,56.42c-2.342,6.511-5.825,7.31-12.392,7.31h-4.569v-7.88h3.369
		c2.228,0,3.884-1.257,3.884-3.313c0-1.6-1.885-6.168-2.456-7.767l-7.652-20.616h10.28l5.596,19.302h0.114l5.596-19.302h9.938
		L380.009,56.42z"/>
	<linearGradient id="SVGID_11_" gradientUnits="userSpaceOnUse" x1="415.3613" y1="134.2627" x2="415.3613" y2="-4.4477">
		<stop  offset="0" style="stop-color:#1C5FBC"/>
		<stop  offset="1" style="stop-color:#1C75BC"/>
	</linearGradient>
	<path fill="url(#SVGID_11_)" d="M397.201,13.018h20.787c7.196,0,14.276,3.255,14.276,11.479c0,4.397-2.112,8.566-6.396,10.222
		v0.114c4.341,1.028,5.598,5.882,5.94,9.766c0.114,1.713,0.285,7.709,1.713,9.194h-10.508c-0.914-1.371-1.085-5.368-1.199-6.51
		c-0.285-4.112-0.971-8.337-5.938-8.337h-8.053v14.848h-10.622V13.018z M407.823,30.722h8.908c3.198,0,4.912-1.714,4.912-4.797
		c0-3.027-2.399-4.398-5.369-4.398h-8.451V30.722z"/>
</g>
</svg>
