<?xml version="1.0" encoding="utf-8"?>
<!-- Generator: Adobe Illustrator 16.0.0, SVG Export Plug-In . SVG Version: 6.00 Build 0)  -->
<!DOCTYPE svg PUBLIC "-//W3C//DTD SVG 1.1//EN" "http://www.w3.org/Graphics/SVG/1.1/DTD/svg11.dtd">
<svg version="1.1" id="Layer_1" xmlns="http://www.w3.org/2000/svg" xmlns:xlink="http://www.w3.org/1999/xlink" x="0px" y="0px"
	 width="448.666px" height="108.5px" viewBox="0 0 448.666 108.5" enable-background="new 0 0 448.666 108.5" xml:space="preserve">
<g>
	<path fill="#1C75BC" d="M111.355,48.812l12.531-0.785c0.271,2.035,0.823,3.586,1.657,4.652c1.356,1.726,3.295,2.588,5.815,2.588
		c1.879,0,3.329-0.441,4.346-1.323c1.018-0.881,1.527-1.904,1.527-3.067c0-1.104-0.485-2.093-1.454-2.965s-3.218-1.696-6.745-2.471
		c-5.776-1.299-9.896-3.024-12.357-5.175c-2.481-2.152-3.721-4.895-3.721-8.229c0-2.19,0.634-4.259,1.904-6.207
		c1.269-1.948,3.179-3.479,5.728-4.594c2.549-1.114,6.042-1.671,10.481-1.671c5.447,0,9.599,1.013,12.458,3.038
		c2.859,2.026,4.56,5.248,5.103,9.667l-12.415,0.727c-0.33-1.919-1.023-3.314-2.079-4.187c-1.057-0.872-2.515-1.309-4.375-1.309
		c-1.532,0-2.685,0.325-3.46,0.974c-0.775,0.65-1.163,1.439-1.163,2.37c0,0.679,0.32,1.289,0.959,1.832
		c0.62,0.563,2.093,1.086,4.419,1.57c5.757,1.241,9.88,2.496,12.371,3.765c2.49,1.27,4.303,2.845,5.437,4.725
		c1.134,1.88,1.701,3.983,1.701,6.309c0,2.733-0.756,5.253-2.268,7.56c-1.512,2.308-3.625,4.057-6.338,5.248
		c-2.714,1.192-6.135,1.788-10.263,1.788c-7.25,0-12.27-1.396-15.061-4.187C113.303,56.662,111.723,53.114,111.355,48.812z"/>
	<path fill="#1C75BC" d="M170.145,20.289v11.746h6.513V40.7h-6.513v10.939c0,1.316,0.125,2.187,0.378,2.611
		c0.387,0.658,1.065,0.987,2.035,0.987c0.872,0,2.093-0.251,3.663-0.754l0.873,8.169c-2.927,0.64-5.66,0.96-8.199,0.96
		c-2.946,0-5.117-0.378-6.513-1.133s-2.428-1.901-3.096-3.441c-0.669-1.539-1.003-4.031-1.003-7.477V40.7h-4.361v-8.665h4.361
		v-5.669L170.145,20.289z"/>
	<path fill="#1C75BC" d="M182.414,32.035h11.078v5.059c1.065-2.19,2.166-3.697,3.3-4.521c1.134-0.824,2.534-1.236,4.201-1.236
		c1.745,0,3.654,0.543,5.728,1.628l-3.664,8.432c-1.396-0.582-2.5-0.873-3.314-0.873c-1.551,0-2.752,0.64-3.605,1.919
		c-1.221,1.803-1.832,5.175-1.832,10.118v10.351h-11.892V32.035z"/>
	<path fill="#1C75BC" d="M220.53,42.037l-11.31-1.192c0.426-1.977,1.042-3.532,1.846-4.666c0.804-1.134,1.963-2.118,3.475-2.951
		c1.085-0.601,2.578-1.066,4.478-1.396c1.899-0.33,3.954-0.495,6.164-0.495c3.547,0,6.396,0.199,8.548,0.596
		c2.151,0.397,3.944,1.226,5.378,2.486c1.008,0.872,1.803,2.108,2.384,3.707s0.872,3.125,0.872,4.579v13.636
		c0,1.454,0.092,2.593,0.276,3.417c0.184,0.824,0.586,1.875,1.207,3.154h-11.106c-0.446-0.795-0.737-1.4-0.872-1.817
		c-0.136-0.416-0.272-1.07-0.407-1.962c-1.551,1.492-3.092,2.559-4.623,3.198c-2.093,0.853-4.526,1.279-7.297,1.279
		c-3.683,0-6.479-0.854-8.388-2.559c-1.909-1.706-2.864-3.81-2.864-6.31c0-2.345,0.688-4.274,2.064-5.786
		c1.376-1.512,3.916-2.636,7.618-3.373c4.438-0.891,7.317-1.516,8.635-1.875c1.318-0.358,2.713-0.829,4.187-1.41
		c0-1.454-0.3-2.472-0.901-3.053c-0.601-0.581-1.657-0.872-3.169-0.872c-1.938,0-3.392,0.311-4.361,0.931
		C221.606,39.789,220.996,40.7,220.53,42.037z M230.793,48.259c-1.628,0.582-3.324,1.096-5.088,1.541
		c-2.404,0.64-3.925,1.27-4.564,1.89c-0.659,0.64-0.989,1.366-0.989,2.181c0,0.93,0.324,1.691,0.974,2.282
		c0.649,0.591,1.604,0.887,2.864,0.887c1.318,0,2.544-0.32,3.678-0.959c1.134-0.64,1.938-1.42,2.414-2.34
		c0.475-0.92,0.712-2.118,0.712-3.591V48.259z"/>
	<path fill="#1C75BC" d="M262.718,20.289v11.746h6.513V40.7h-6.513v10.939c0,1.316,0.125,2.187,0.378,2.611
		c0.387,0.658,1.065,0.987,2.035,0.987c0.872,0,2.093-0.251,3.663-0.754l0.873,8.169c-2.927,0.64-5.66,0.96-8.199,0.96
		c-2.946,0-5.117-0.378-6.513-1.133s-2.428-1.901-3.096-3.441c-0.669-1.539-1.003-4.031-1.003-7.477V40.7h-4.361v-8.665h4.361
		v-5.669L262.718,20.289z"/>
	<path fill="#1C75BC" d="M309.15,50.411h-23.725c0.213,1.9,0.727,3.314,1.541,4.245c1.143,1.337,2.636,2.006,4.478,2.006
		c1.163,0,2.268-0.291,3.314-0.872c0.64-0.368,1.327-1.018,2.064-1.948l11.659,1.076c-1.784,3.102-3.935,5.326-6.455,6.673
		c-2.52,1.348-6.135,2.021-10.845,2.021c-4.09,0-7.308-0.577-9.653-1.73c-2.346-1.153-4.289-2.984-5.83-5.496
		c-1.541-2.51-2.312-5.461-2.312-8.853c0-4.827,1.545-8.732,4.638-11.717c3.091-2.984,7.36-4.478,12.807-4.478
		c4.419,0,7.908,0.669,10.467,2.006s4.507,3.276,5.844,5.815c1.337,2.54,2.006,5.844,2.006,9.915V50.411z M297.113,44.741
		c-0.233-2.287-0.848-3.925-1.846-4.914c-0.999-0.988-2.312-1.482-3.94-1.482c-1.88,0-3.382,0.746-4.506,2.239
		c-0.717,0.93-1.173,2.316-1.367,4.157H297.113z"/>
	<path fill="#1C75BC" d="M337.556,32.035h11.077v29.162l0.029,1.367c0,1.938-0.412,3.784-1.236,5.538
		c-0.824,1.754-1.919,3.174-3.285,4.26c-1.367,1.085-3.102,1.87-5.205,2.355c-2.104,0.484-4.512,0.727-7.225,0.727
		c-6.203,0-10.462-0.931-12.778-2.791c-2.316-1.861-3.474-4.352-3.474-7.473c0-0.388,0.019-0.911,0.058-1.569l11.484,1.308
		c0.291,1.066,0.736,1.803,1.337,2.21c0.872,0.601,1.967,0.901,3.285,0.901c1.706,0,2.98-0.456,3.824-1.366
		c0.843-0.912,1.265-2.501,1.265-4.769v-4.682c-1.163,1.377-2.326,2.375-3.489,2.995c-1.822,0.97-3.79,1.454-5.902,1.454
		c-4.129,0-7.463-1.803-10.002-5.409c-1.802-2.559-2.704-5.94-2.704-10.147c0-4.807,1.163-8.47,3.489-10.99
		c2.326-2.52,5.369-3.78,9.129-3.78c2.403,0,4.385,0.407,5.946,1.221c1.56,0.814,3.019,2.162,4.376,4.042V32.035z M326.42,47.009
		c0,2.229,0.475,3.881,1.425,4.957c0.949,1.076,2.2,1.614,3.75,1.614c1.473,0,2.708-0.557,3.707-1.672
		c0.998-1.114,1.497-2.795,1.497-5.044c0-2.248-0.523-3.969-1.57-5.161s-2.326-1.788-3.838-1.788s-2.718,0.548-3.62,1.643
		C326.871,42.652,326.42,44.47,326.42,47.009z"/>
	<path fill="#1C75BC" d="M353.401,32.035h12.486l6.369,20.556l5.915-20.556h11.661l-12.25,32.992
		c-1.395,3.764-2.819,6.305-4.272,7.623c-2.054,1.862-5.183,2.794-9.387,2.794c-1.706,0-4.34-0.232-7.905-0.698l-0.929-8.257
		c1.704,0.542,3.602,0.814,5.693,0.814c1.395,0,2.522-0.32,3.384-0.961s1.593-1.785,2.193-3.436L353.401,32.035z"/>
	<path fill="#1C75BC" d="M394.135,62.913V20.289h21.951c4.071,0,7.182,0.349,9.333,1.047c2.152,0.698,3.886,1.992,5.205,3.881
		c1.318,1.89,1.977,4.192,1.977,6.905c0,2.365-0.504,4.405-1.513,6.12c-1.009,1.715-2.396,3.106-4.16,4.172
		c-1.125,0.679-2.667,1.241-4.625,1.686c1.568,0.524,2.711,1.048,3.428,1.572c0.484,0.349,1.187,1.096,2.107,2.241
		c0.92,1.145,1.535,2.028,1.845,2.648l6.378,12.351h-14.882l-7.04-13.026c-0.892-1.687-1.687-2.781-2.384-3.286
		c-0.95-0.659-2.025-0.988-3.227-0.988h-1.163v17.3H394.135z M407.364,37.56h5.553c0.601,0,1.764-0.193,3.489-0.582
		c0.873-0.174,1.585-0.62,2.137-1.337c0.552-0.717,0.829-1.541,0.829-2.471c0-1.376-0.436-2.433-1.309-3.169
		c-0.872-0.736-2.51-1.104-4.914-1.104h-5.786V37.56z"/>
</g>
<g>
	<path fill="#333333" d="M113.527,93.218V79.175h1.858v14.043H113.527z"/>
	<path fill="#333333" d="M121.973,93.218V83.045h1.552v1.446c0.747-1.117,1.826-1.677,3.237-1.677c0.613,0,1.177,0.11,1.691,0.331
		c0.514,0.22,0.899,0.509,1.154,0.867c0.255,0.357,0.434,0.782,0.536,1.273c0.064,0.319,0.096,0.878,0.096,1.677v6.255h-1.725
		v-6.188c0-0.702-0.067-1.228-0.201-1.575c-0.134-0.349-0.372-0.626-0.713-0.834c-0.342-0.207-0.742-0.311-1.202-0.311
		c-0.734,0-1.368,0.232-1.901,0.699c-0.533,0.466-0.8,1.351-0.8,2.653v5.556H121.973z"/>
	<path fill="#333333" d="M136.826,93.218v-8.832h-1.523v-1.341h1.523v-1.083c0-0.683,0.061-1.19,0.182-1.522
		c0.166-0.447,0.458-0.81,0.876-1.087c0.418-0.278,1.004-0.417,1.758-0.417c0.485,0,1.021,0.058,1.609,0.172l-0.258,1.504
		c-0.358-0.063-0.696-0.096-1.016-0.096c-0.523,0-0.894,0.112-1.111,0.336c-0.217,0.224-0.326,0.642-0.326,1.255v0.938h1.982v1.341
		h-1.982v8.832H136.826z"/>
	<path fill="#333333" d="M145.358,93.218V79.175h1.724v14.043H145.358z"/>
	<path fill="#333333" d="M159.953,93.218v-1.494c-0.792,1.149-1.868,1.724-3.228,1.724c-0.6,0-1.161-0.114-1.681-0.345
		c-0.521-0.229-0.907-0.519-1.159-0.866c-0.252-0.349-0.43-0.774-0.532-1.279c-0.07-0.338-0.105-0.875-0.105-1.609v-6.303h1.724
		v5.642c0,0.9,0.035,1.508,0.105,1.82c0.108,0.453,0.338,0.81,0.689,1.068c0.352,0.259,0.786,0.388,1.303,0.388
		c0.518,0,1.003-0.133,1.456-0.397c0.454-0.265,0.774-0.626,0.963-1.082c0.188-0.457,0.283-1.119,0.283-1.988v-5.45h1.724v10.173
		H159.953z"/>
	<path fill="#333333" d="M174.692,89.941l1.782,0.221c-0.281,1.041-0.802,1.849-1.562,2.424c-0.76,0.574-1.731,0.861-2.912,0.861
		c-1.488,0-2.668-0.458-3.54-1.374s-1.308-2.202-1.308-3.855c0-1.712,0.441-3.04,1.322-3.985c0.881-0.945,2.024-1.418,3.429-1.418
		c1.36,0,2.471,0.464,3.333,1.39c0.862,0.926,1.293,2.229,1.293,3.908c0,0.103-0.003,0.255-0.009,0.46h-7.587
		c0.064,1.117,0.38,1.973,0.948,2.566c0.568,0.595,1.277,0.892,2.127,0.892c0.632,0,1.171-0.166,1.619-0.498
		C174.075,91.2,174.43,90.67,174.692,89.941z M169.03,87.154h5.681c-0.077-0.855-0.294-1.497-0.651-1.926
		c-0.549-0.664-1.261-0.996-2.136-0.996c-0.792,0-1.458,0.266-1.997,0.795C169.386,85.558,169.088,86.267,169.03,87.154z"/>
	<path fill="#333333" d="M182.169,93.218V83.045h1.552v1.446c0.747-1.117,1.826-1.677,3.237-1.677c0.613,0,1.177,0.11,1.691,0.331
		c0.514,0.22,0.899,0.509,1.154,0.867c0.255,0.357,0.434,0.782,0.536,1.273c0.064,0.319,0.096,0.878,0.096,1.677v6.255h-1.725
		v-6.188c0-0.702-0.067-1.228-0.201-1.575c-0.134-0.349-0.372-0.626-0.713-0.834c-0.342-0.207-0.742-0.311-1.202-0.311
		c-0.734,0-1.368,0.232-1.901,0.699c-0.533,0.466-0.8,1.351-0.8,2.653v5.556H182.169z"/>
	<path fill="#333333" d="M203.25,89.491l1.695,0.221c-0.185,1.169-0.66,2.083-1.422,2.744c-0.763,0.661-1.7,0.991-2.812,0.991
		c-1.392,0-2.511-0.455-3.357-1.364c-0.846-0.91-1.27-2.215-1.27-3.913c0-1.099,0.182-2.06,0.546-2.884
		c0.364-0.823,0.918-1.441,1.662-1.854c0.744-0.412,1.554-0.618,2.428-0.618c1.105,0,2.009,0.28,2.711,0.839
		c0.703,0.559,1.153,1.353,1.351,2.38l-1.676,0.259c-0.16-0.684-0.442-1.197-0.848-1.542s-0.896-0.518-1.47-0.518
		c-0.869,0-1.574,0.312-2.117,0.935c-0.543,0.622-0.814,1.607-0.814,2.955c0,1.366,0.262,2.359,0.785,2.979
		c0.524,0.62,1.207,0.93,2.05,0.93c0.677,0,1.242-0.208,1.695-0.623C202.84,90.992,203.128,90.354,203.25,89.491z"/>
	<path fill="#333333" d="M216.916,89.941l1.782,0.221c-0.281,1.041-0.802,1.849-1.562,2.424c-0.76,0.574-1.731,0.861-2.912,0.861
		c-1.488,0-2.668-0.458-3.54-1.374s-1.308-2.202-1.308-3.855c0-1.712,0.441-3.04,1.322-3.985c0.881-0.945,2.024-1.418,3.429-1.418
		c1.36,0,2.471,0.464,3.333,1.39c0.862,0.926,1.293,2.229,1.293,3.908c0,0.103-0.003,0.255-0.009,0.46h-7.587
		c0.064,1.117,0.38,1.973,0.948,2.566c0.568,0.595,1.277,0.892,2.127,0.892c0.632,0,1.171-0.166,1.619-0.498
		C216.299,91.2,216.653,90.67,216.916,89.941z M211.254,87.154h5.681c-0.077-0.855-0.294-1.497-0.651-1.926
		c-0.549-0.664-1.261-0.996-2.136-0.996c-0.792,0-1.458,0.266-1.997,0.795C211.61,85.558,211.312,86.267,211.254,87.154z"/>
	<path fill="#333333" d="M224.374,93.218V83.045h1.552v1.542c0.396-0.722,0.762-1.197,1.097-1.427
		c0.335-0.23,0.704-0.346,1.106-0.346c0.581,0,1.172,0.186,1.772,0.556l-0.594,1.6c-0.421-0.249-0.843-0.373-1.264-0.373
		c-0.377,0-0.715,0.113-1.016,0.34s-0.514,0.541-0.642,0.943c-0.191,0.613-0.288,1.284-0.288,2.012v5.326H224.374z"/>
	<path fill="#333333" d="M243.659,93.218V79.175h4.837c1.092,0,1.925,0.067,2.5,0.201c0.805,0.186,1.491,0.521,2.06,1.006
		c0.741,0.626,1.294,1.426,1.662,2.399s0.551,2.087,0.551,3.339c0,1.066-0.125,2.011-0.374,2.835s-0.568,1.506-0.958,2.045
		c-0.39,0.54-0.816,0.965-1.279,1.274c-0.463,0.31-1.022,0.544-1.676,0.704c-0.655,0.159-1.407,0.239-2.256,0.239H243.659z
		 M245.518,91.561h2.998c0.926,0,1.652-0.086,2.179-0.259c0.527-0.172,0.947-0.415,1.26-0.728c0.44-0.44,0.784-1.033,1.03-1.777
		c0.246-0.744,0.369-1.646,0.369-2.706c0-1.469-0.241-2.598-0.723-3.386c-0.482-0.789-1.068-1.317-1.758-1.586
		c-0.498-0.191-1.3-0.287-2.404-0.287h-2.95V91.561z"/>
	<path fill="#333333" d="M261.118,93.218V83.045h1.552v1.542c0.396-0.722,0.762-1.197,1.097-1.427
		c0.335-0.23,0.704-0.346,1.106-0.346c0.581,0,1.172,0.186,1.772,0.556l-0.594,1.6c-0.421-0.249-0.843-0.373-1.264-0.373
		c-0.377,0-0.715,0.113-1.016,0.34s-0.514,0.541-0.642,0.943c-0.191,0.613-0.288,1.284-0.288,2.012v5.326H261.118z"/>
	<path fill="#333333" d="M271.211,81.158v-1.983h1.724v1.983H271.211z M271.211,93.218V83.045h1.724v10.173H271.211z"/>
	<path fill="#333333" d="M281.917,93.218l-3.87-10.173h1.82l2.184,6.092c0.236,0.658,0.454,1.342,0.651,2.051
		c0.153-0.537,0.367-1.182,0.642-1.936l2.261-6.207h1.772l-3.851,10.173H281.917z"/>
	<path fill="#333333" d="M299.396,89.941l1.782,0.221c-0.281,1.041-0.802,1.849-1.562,2.424c-0.76,0.574-1.731,0.861-2.912,0.861
		c-1.488,0-2.668-0.458-3.54-1.374s-1.308-2.202-1.308-3.855c0-1.712,0.441-3.04,1.322-3.985c0.881-0.945,2.024-1.418,3.429-1.418
		c1.36,0,2.471,0.464,3.333,1.39c0.862,0.926,1.293,2.229,1.293,3.908c0,0.103-0.003,0.255-0.009,0.46h-7.587
		c0.064,1.117,0.38,1.973,0.948,2.566c0.568,0.595,1.277,0.892,2.127,0.892c0.632,0,1.171-0.166,1.619-0.498
		C298.779,91.2,299.133,90.67,299.396,89.941z M293.734,87.154h5.681c-0.077-0.855-0.294-1.497-0.651-1.926
		c-0.549-0.664-1.261-0.996-2.136-0.996c-0.792,0-1.458,0.266-1.997,0.795C294.09,85.558,293.792,86.267,293.734,87.154z"/>
	<path fill="#333333" d="M306.873,93.218V83.045h1.552v1.446c0.747-1.117,1.826-1.677,3.237-1.677c0.613,0,1.177,0.11,1.691,0.331
		c0.514,0.22,0.899,0.509,1.154,0.867c0.255,0.357,0.434,0.782,0.536,1.273c0.064,0.319,0.096,0.878,0.096,1.677v6.255h-1.725
		v-6.188c0-0.702-0.067-1.228-0.201-1.575c-0.134-0.349-0.372-0.626-0.713-0.834c-0.342-0.207-0.742-0.311-1.202-0.311
		c-0.734,0-1.368,0.232-1.901,0.699c-0.533,0.466-0.8,1.351-0.8,2.653v5.556H306.873z"/>
	<path fill="#333333" d="M330.545,93.218V79.175h6.227c1.251,0,2.203,0.126,2.854,0.379c0.651,0.252,1.172,0.697,1.562,1.336
		s0.584,1.344,0.584,2.117c0,0.996-0.323,1.836-0.968,2.519c-0.645,0.684-1.641,1.118-2.989,1.303
		c0.492,0.236,0.866,0.47,1.121,0.699c0.542,0.499,1.057,1.121,1.542,1.868l2.443,3.822h-2.337l-1.858-2.922
		c-0.543-0.843-0.99-1.487-1.341-1.935c-0.352-0.447-0.666-0.76-0.944-0.938s-0.56-0.304-0.848-0.374
		c-0.21-0.045-0.556-0.067-1.035-0.067h-2.155v6.236H330.545z M332.404,85.372h3.995c0.849,0,1.514-0.087,1.993-0.263
		c0.479-0.176,0.843-0.457,1.092-0.843c0.249-0.387,0.374-0.807,0.374-1.26c0-0.664-0.241-1.21-0.723-1.639
		c-0.482-0.428-1.244-0.642-2.285-0.642h-4.445V85.372z"/>
	<path fill="#333333" d="M354.959,89.941l1.782,0.221c-0.281,1.041-0.802,1.849-1.562,2.424c-0.76,0.574-1.731,0.861-2.912,0.861
		c-1.488,0-2.668-0.458-3.54-1.374s-1.308-2.202-1.308-3.855c0-1.712,0.441-3.04,1.322-3.985c0.881-0.945,2.024-1.418,3.429-1.418
		c1.36,0,2.471,0.464,3.333,1.39c0.862,0.926,1.293,2.229,1.293,3.908c0,0.103-0.003,0.255-0.009,0.46h-7.587
		c0.064,1.117,0.38,1.973,0.948,2.566c0.568,0.595,1.277,0.892,2.127,0.892c0.632,0,1.171-0.166,1.619-0.498
		C354.343,91.2,354.697,90.67,354.959,89.941z M349.298,87.154h5.681c-0.077-0.855-0.294-1.497-0.651-1.926
		c-0.549-0.664-1.261-0.996-2.136-0.996c-0.792,0-1.458,0.266-1.997,0.795C349.654,85.558,349.355,86.267,349.298,87.154z"/>
	<path fill="#333333" d="M361.748,90.182l1.705-0.269c0.096,0.684,0.362,1.207,0.8,1.571c0.438,0.363,1.049,0.546,1.834,0.546
		c0.792,0,1.379-0.161,1.763-0.484c0.383-0.322,0.575-0.7,0.575-1.135c0-0.39-0.169-0.696-0.508-0.92
		c-0.236-0.153-0.824-0.348-1.763-0.584c-1.264-0.319-2.141-0.596-2.629-0.829c-0.488-0.232-0.859-0.555-1.111-0.967
		c-0.252-0.412-0.378-0.867-0.378-1.365c0-0.453,0.104-0.873,0.312-1.26c0.208-0.386,0.49-0.707,0.848-0.963
		c0.269-0.197,0.634-0.365,1.097-0.503c0.463-0.137,0.959-0.206,1.49-0.206c0.798,0,1.499,0.115,2.103,0.346
		c0.604,0.229,1.049,0.541,1.336,0.934c0.287,0.393,0.485,0.918,0.594,1.576l-1.686,0.229c-0.076-0.523-0.298-0.933-0.666-1.227
		c-0.367-0.293-0.886-0.44-1.557-0.44c-0.792,0-1.357,0.131-1.695,0.393c-0.339,0.263-0.508,0.568-0.508,0.92
		c0,0.224,0.07,0.425,0.211,0.604c0.14,0.186,0.36,0.339,0.661,0.46c0.172,0.063,0.68,0.211,1.523,0.44
		c1.22,0.326,2.071,0.593,2.553,0.8c0.482,0.208,0.86,0.51,1.135,0.905c0.275,0.396,0.412,0.888,0.412,1.476
		c0,0.574-0.167,1.115-0.503,1.623s-0.819,0.9-1.451,1.179c-0.632,0.277-1.348,0.416-2.146,0.416c-1.322,0-2.329-0.274-3.022-0.823
		S361.939,91.261,361.748,90.182z"/>
	<path fill="#333333" d="M382.741,89.941l1.782,0.221c-0.281,1.041-0.802,1.849-1.562,2.424c-0.76,0.574-1.731,0.861-2.912,0.861
		c-1.488,0-2.668-0.458-3.54-1.374s-1.308-2.202-1.308-3.855c0-1.712,0.441-3.04,1.322-3.985c0.881-0.945,2.024-1.418,3.429-1.418
		c1.36,0,2.471,0.464,3.333,1.39c0.862,0.926,1.293,2.229,1.293,3.908c0,0.103-0.003,0.255-0.009,0.46h-7.587
		c0.064,1.117,0.38,1.973,0.948,2.566c0.568,0.595,1.277,0.892,2.127,0.892c0.632,0,1.171-0.166,1.619-0.498
		C382.125,91.2,382.479,90.67,382.741,89.941z M377.08,87.154h5.681c-0.077-0.855-0.294-1.497-0.651-1.926
		c-0.549-0.664-1.261-0.996-2.136-0.996c-0.792,0-1.458,0.266-1.997,0.795C377.436,85.558,377.137,86.267,377.08,87.154z"/>
	<path fill="#333333" d="M396.857,91.963c-0.639,0.543-1.253,0.926-1.844,1.149s-1.225,0.335-1.901,0.335
		c-1.118,0-1.977-0.272-2.577-0.818c-0.601-0.546-0.9-1.244-0.9-2.094c0-0.498,0.113-0.952,0.34-1.364s0.523-0.742,0.891-0.992
		c0.367-0.249,0.78-0.437,1.24-0.564c0.338-0.09,0.849-0.176,1.533-0.259c1.392-0.166,2.417-0.364,3.075-0.594
		c0.006-0.236,0.01-0.387,0.01-0.45c0-0.703-0.163-1.197-0.489-1.485c-0.44-0.389-1.095-0.584-1.963-0.584
		c-0.811,0-1.41,0.143-1.796,0.427c-0.386,0.284-0.672,0.787-0.857,1.508l-1.686-0.229c0.153-0.722,0.405-1.305,0.757-1.748
		c0.351-0.444,0.859-0.785,1.523-1.025c0.664-0.239,1.434-0.359,2.309-0.359c0.868,0,1.574,0.103,2.117,0.307
		c0.543,0.205,0.942,0.462,1.198,0.771c0.255,0.31,0.434,0.701,0.536,1.174c0.058,0.293,0.086,0.823,0.086,1.59v2.299
		c0,1.603,0.037,2.617,0.11,3.041c0.074,0.425,0.219,0.832,0.436,1.222h-1.801C397.023,92.86,396.908,92.441,396.857,91.963z
		 M396.713,88.112c-0.626,0.255-1.564,0.473-2.816,0.651c-0.709,0.103-1.21,0.217-1.504,0.345c-0.294,0.128-0.521,0.314-0.68,0.561
		s-0.24,0.519-0.24,0.818c0,0.46,0.174,0.844,0.522,1.15c0.348,0.306,0.857,0.459,1.528,0.459c0.664,0,1.255-0.145,1.772-0.436
		c0.517-0.29,0.897-0.688,1.14-1.192c0.186-0.39,0.278-0.965,0.278-1.725V88.112z"/>
	<path fill="#333333" d="M404.642,93.218V83.045h1.552v1.542c0.396-0.722,0.762-1.197,1.097-1.427
		c0.335-0.23,0.704-0.346,1.106-0.346c0.581,0,1.172,0.186,1.772,0.556l-0.594,1.6c-0.421-0.249-0.843-0.373-1.264-0.373
		c-0.377,0-0.715,0.113-1.016,0.34s-0.514,0.541-0.642,0.943c-0.191,0.613-0.288,1.284-0.288,2.012v5.326H404.642z"/>
	<path fill="#333333" d="M421.363,89.491l1.695,0.221c-0.185,1.169-0.66,2.083-1.422,2.744c-0.763,0.661-1.7,0.991-2.812,0.991
		c-1.392,0-2.511-0.455-3.357-1.364c-0.846-0.91-1.27-2.215-1.27-3.913c0-1.099,0.182-2.06,0.546-2.884
		c0.364-0.823,0.918-1.441,1.662-1.854c0.744-0.412,1.554-0.618,2.428-0.618c1.105,0,2.009,0.28,2.711,0.839
		c0.703,0.559,1.153,1.353,1.351,2.38l-1.676,0.259c-0.16-0.684-0.442-1.197-0.848-1.542s-0.896-0.518-1.47-0.518
		c-0.869,0-1.574,0.312-2.117,0.935c-0.543,0.622-0.814,1.607-0.814,2.955c0,1.366,0.262,2.359,0.785,2.979
		c0.524,0.62,1.207,0.93,2.05,0.93c0.677,0,1.242-0.208,1.695-0.623C420.954,90.992,421.242,90.354,421.363,89.491z"/>
	<path fill="#333333" d="M428.065,93.218V79.175h1.725v5.039c0.805-0.933,1.82-1.399,3.046-1.399c0.753,0,1.408,0.149,1.964,0.446
		s0.953,0.707,1.192,1.23c0.24,0.523,0.359,1.283,0.359,2.28v6.446h-1.724v-6.446c0-0.862-0.187-1.49-0.561-1.883
		s-0.902-0.589-1.585-0.589c-0.511,0-0.991,0.133-1.441,0.397s-0.771,0.624-0.963,1.077c-0.191,0.454-0.287,1.08-0.287,1.878v5.565
		H428.065z"/>
</g>
<g>
	<path fill-rule="evenodd" clip-rule="evenodd" fill="#C9C9C9" d="M53.13,7.849c0.492,0,0.984,0,1.476,0
		c0.684,0.042,1.356,0.131,1.981,0.243c4.378,0.781,7.52,2.729,10.299,5.158c3.159,2.764,5.621,6.179,7.7,9.962
		c0.02,0.037,0.068,0.166,0.112,0.205c0.077,0.068,0.063,0.043,0.15,0.056c0.586,0.089,1.174,0.09,1.738,0.15
		c1.75,0.186,3.342,0.413,4.897,0.766c6.147,1.394,11.108,4.011,14.373,8.336c2.189,2.9,3.65,6.61,3.42,11.681
		c-0.105,2.332-0.621,4.435-1.253,6.317c-0.641,1.912-1.412,3.614-2.298,5.271c-0.025,0.048-0.062,0.108-0.075,0.149
		c-0.045,0.141,0.094,0.287,0.187,0.467c1.619,3.119,3.061,6.636,3.402,10.915c0.418,5.258-1.131,9.064-3.233,11.944
		c-3.752,5.135-9.931,8.001-17.606,9.119c-1.105,0.159-2.262,0.21-3.477,0.354c-0.125,0.017-0.134-0.002-0.206,0.057
		c-0.044,0.038-0.052,0.095-0.093,0.167c-2.133,3.884-4.688,7.332-7.942,10.188c-1.582,1.387-3.405,2.624-5.496,3.569
		c-2.099,0.951-4.576,1.645-7.419,1.645c-1.49,0-2.767-0.218-4-0.524c-3.607-0.893-6.452-2.71-8.804-4.802
		c-3.07-2.735-5.403-5.849-7.512-9.496c-0.109-0.186-0.278-0.597-0.412-0.728c-0.094-0.091-0.153-0.064-0.318-0.075
		c-4.639-0.275-8.845-1.255-12.334-2.803c-3.527-1.566-6.415-3.692-8.58-6.561c-1.085-1.438-1.978-3.053-2.561-5.008
		c-0.57-1.918-0.952-4.214-0.766-6.73c0.332-4.484,1.637-7.804,3.27-10.932c0.108-0.208,0.384-0.619,0.337-0.767
		c-0.064-0.198-0.23-0.396-0.337-0.598c-0.335-0.633-0.629-1.299-0.915-1.943c-1.181-2.663-2.095-5.461-2.355-9.046
		c-0.183-2.524,0.187-4.836,0.766-6.747c0.596-1.963,1.515-3.55,2.598-5.009c2.149-2.894,5.081-5.01,8.635-6.561
		c3.306-1.443,7.174-2.347,11.532-2.71c0.297-0.025,0.643,0.013,0.896-0.056c0.141-0.038,0.136-0.096,0.206-0.224
		c2.069-3.766,4.597-7.239,7.719-9.98C44.047,10.445,47.597,8.329,53.13,7.849z M73.408,23.082c-2.002-3.782-4.398-7.222-7.401-9.98
		c-1.527-1.404-3.263-2.704-5.307-3.664c-2.009-0.943-4.482-1.69-7.42-1.551c-0.699,0.032-1.391,0.105-2.018,0.205
		c-0.614,0.098-1.186,0.244-1.757,0.411c-3.312,0.976-5.859,2.777-8.092,4.897c-2.866,2.72-5.161,6.05-7.084,9.681
		c-0.054,0.103-0.135,0.212-0.131,0.336c7.516-0.244,13.899,0.964,19.68,2.58c5.768-1.623,12.156-2.821,19.663-2.58
		C73.543,23.293,73.463,23.183,73.408,23.082z M28.982,37.958c0.092,0.009,0.188-0.102,0.281-0.168
		c6.401-4.612,13.759-8.269,21.979-11.027c-5.282-1.354-10.898-2.37-17.587-2.317C31.65,28.502,30.137,33.05,28.982,37.958z
		 M56.494,26.781c4.212,1.329,8.125,3.055,11.85,4.897c2.796,1.383,5.417,2.995,7.943,4.617c0.795,0.511,1.568,1.095,2.317,1.607
		c0.034,0.023,0.099,0.073,0.149,0.056c-1.163-4.905-2.653-9.482-4.69-13.513C67.386,24.403,61.74,25.393,56.494,26.781z
		 M26.759,39.678c0.171-0.134,0.467-0.336,0.523-0.449c0.06-0.121,0.07-0.33,0.112-0.505c1.094-4.609,2.47-8.759,4.28-12.597
		c0.218-0.461,0.505-1.005,0.71-1.476c0.108-0.247,0.021-0.153-0.149-0.15c-2.265,0.047-4.488,0.354-6.542,0.767
		c-6.086,1.224-10.981,3.723-14.073,7.887c-2.033,2.738-3.427,6.586-2.897,11.476c0.47,4.322,2.103,7.678,3.851,10.783
		C16.237,49.099,21.164,44.058,26.759,39.678z M75.296,24.539c2.17,4.232,3.827,8.963,5.046,14.167
		c0.043,0.182,0.05,0.399,0.112,0.523c0.061,0.123,0.344,0.291,0.523,0.429c5.62,4.377,10.539,9.525,14.205,15.755
		c1.731-3.112,3.354-6.504,3.85-10.821c0.27-2.355,0.047-4.711-0.523-6.598c-1.703-5.629-5.708-8.973-10.934-11.102
		c-3.505-1.428-7.652-2.212-12.279-2.411C75.267,24.487,75.283,24.523,75.296,24.539z M52.813,25.772
		c-0.469,0.758-0.912,1.705-1.383,2.522c-8.638,2.918-16.183,6.931-22.896,11.775c-0.219,1.208-0.434,2.398-0.616,3.644
		c-0.178,1.225-0.326,2.474-0.468,3.757c-0.699,6.339-0.51,13.863,0.281,19.884c0.162,1.239,0.394,2.447,0.56,3.664
		c0.017,0.117-0.205,0.417-0.28,0.542c-0.311,0.521-0.609,0.972-0.897,1.459c-5.749-4.443-10.793-9.593-14.56-16.018
		c-1.737,3.114-3.355,6.512-3.85,10.839c-0.56,4.895,0.957,8.818,2.972,11.495c4.191,5.568,11.54,8.132,20.783,8.597
		c-1.924-3.824-3.543-8.055-4.654-12.634c0.456,0.013,0.959-0.026,1.383,0.019c1.137,4.576,2.566,8.859,4.486,12.654
		c6.676,0.042,12.321-0.947,17.568-2.336c-7.844-2.572-14.873-6.074-20.97-10.337c0.601,0,1.313,0,1.925,0
		c0.203,0,0.595-0.05,0.692,0c0.402,0.21,0.786,0.492,1.177,0.729c5.963,3.607,12.445,6.633,19.774,8.876c0.018,0,0.036,0,0.056,0
		c7.536-2.353,14.246-5.405,20.334-9.212c0.266-0.168,0.46-0.357,0.729-0.375c0.831-0.049,1.825-0.038,2.635-0.093
		c-6.191,4.318-13.213,7.805-21.101,10.429c5.286,1.356,10.909,2.372,17.605,2.318c1.876-3.88,3.354-8.16,4.486-12.785
		c0.464-0.004,0.983-0.051,1.401-0.037c-1.107,4.517-2.693,8.692-4.541,12.429c-0.053,0.106-0.151,0.224-0.131,0.354
		c4.619-0.201,8.76-0.983,12.261-2.41c3.472-1.414,6.455-3.405,8.504-6.187c2.003-2.719,3.514-6.625,2.953-11.512
		c-0.496-4.316-2.112-7.732-3.869-10.823c-3.731,6.427-8.772,11.55-14.503,15.98c-0.398-0.655-0.833-1.273-1.233-1.925
		c0.903-4.691,1.309-10.028,1.309-15.587c0-5.543-0.658-10.718-1.532-15.363c-7.311-5.35-15.735-9.684-25.419-12.597
		C53.464,26.927,53.135,26.353,52.813,25.772z M26.833,41.397c-0.001-0.011-0.003-0.022-0.018-0.019
		c-5.342,4.195-10.135,8.94-13.774,14.839c2.725,4.419,6.159,8.193,9.887,11.587c1.164,1.061,2.429,2.106,3.664,3.065
		c0.063,0.051,0.146,0.14,0.242,0.131C25.034,62.232,25.045,50.149,26.833,41.397z M80.921,41.397
		c-0.001-0.02-0.023-0.015-0.018,0.018c0.847,4.417,1.365,9.561,1.364,14.803c-0.001,5.235-0.522,10.382-1.364,14.802
		c5.345-4.117,10.151-8.936,13.793-14.82C91.037,50.333,86.286,45.559,80.921,41.397z M54.981,86.739
		c-0.368-0.102-0.741-0.24-1.104-0.301c-0.123-0.021-0.413,0.099-0.598,0.151C47.6,88.144,41.485,89.218,34.197,89
		c-0.004,0.123,0.077,0.231,0.131,0.337c0.957,1.806,1.994,3.524,3.14,5.12c2.451,3.416,5.362,6.407,9.27,8.372
		c1.971,0.991,4.271,1.703,7.121,1.701c2.855,0,5.13-0.714,7.121-1.701c1.973-0.974,3.689-2.231,5.178-3.644
		c2.924-2.775,5.272-6.133,7.251-9.831c0.065-0.121,0.143-0.266,0.131-0.354C66.486,89.186,60.459,88.238,54.981,86.739z"/>
	<path fill-rule="evenodd" clip-rule="evenodd" fill="#ED1C24" d="M58.121,36.799c-3.445,0-6.891,0-10.336,0
		c-0.021-0.109,0.067-0.193,0.113-0.28c0.768-1.451,1.572-2.934,2.354-4.411c0.847-1.598,1.719-3.199,2.561-4.766
		C54.591,30.474,56.399,33.674,58.121,36.799z"/>
	<path fill-rule="evenodd" clip-rule="evenodd" fill="#1C75BC" d="M56.214,56.18c-1.984,0.034-3.962,0.076-5.963,0.093
		c0.017-6.006,0.059-11.99,0.094-17.979c1.419-0.023,2.725-0.075,4.148-0.075c0.459,0,0.993-0.003,1.44-0.038
		c0.126-0.01,0.083,0.025,0.093,0.224c0.07,1.433,0.004,2.829,0.056,4.224c0.06,1.566,0.038,3.052,0.038,4.523
		C56.12,50.192,56.226,53.185,56.214,56.18z"/>
	<path fill-rule="evenodd" clip-rule="evenodd" fill="#1C75BC" d="M58.756,40.631c7.286,11.231,14.642,22.484,21.867,33.716
		c-2.416,0.081-4.886,0.216-7.382,0.278c-0.174,0.006-0.388,0.05-0.487,0.02c-0.138-0.042-0.339-0.476-0.466-0.671
		c-2.225-3.428-4.519-6.982-6.71-10.372c-3.009-0.019-5.997-0.059-8.99-0.095c0-1.645,0-3.289,0-4.935
		c1.913-0.018,3.81-0.053,5.738-0.057c-0.998-1.907-2.172-3.926-3.271-5.905c-0.072-0.13-0.179-0.289-0.206-0.393
		c-0.097-0.374-0.019-0.947-0.019-1.438c0-1.485-0.037-2.835-0.037-4.336c0-1.957-0.108-3.844-0.056-5.757
		C58.738,40.66,58.732,40.633,58.756,40.631z"/>
	<path fill-rule="evenodd" clip-rule="evenodd" fill="#1C75BC" d="M47.467,40.761c0.098,3.22,0.033,6.604,0.112,9.906
		c0.011,0.48,0.075,1.037,0,1.42c-0.028,0.143-0.195,0.334-0.299,0.523c-2.971,5.415-6.027,10.737-9.009,16.129
		c3.519-0.101,7.057-0.184,10.598-0.262c0.055-1.222,0.059-2.495,0.112-3.721c2.385-0.026,4.753-0.068,7.139-0.093
		c0.038,3.261,0.079,6.514,0.094,9.795c-9.71,0.016-19.394,0.054-29.082,0.093c-0.032-0.095,0.052-0.191,0.094-0.263
		c5.01-8.325,10.133-16.662,15.121-25.043c0.839-1.412,1.683-2.822,2.541-4.224C45.755,43.606,46.623,42.193,47.467,40.761z"/>
</g>
</svg>
